#!OML:ASF F:\VICON\USERDATA\INSTALL\rory3\rory3.ASF
:FULLY-SPECIFIED
:DEGREES
240
root 5.17021 17.6862 14.2758 0.225972 0.866044 2.46514
lowerback 10.5129 -0.928501 -4.71013
upperback -0.214949 -1.75081 1.08631
thorax -5.9585 -0.701267 4.07053
lowerneck -17.9055 -2.80988 -1.9162
upperneck 16.2308 -3.67907 1.71851
head 8.04146 -1.69001 0.442328
rclavicle 9.01985e-015 -1.51076e-014
rhumerus -34.8406 -22.4717 -75.5074
rradius 25.98
rwrist 6.80013
rhand -16.7201 19.2311
rfingers 7.12502
rthumb 9.50545 -10.5345
lclavicle 9.01985e-015 -1.51076e-014
lhumerus -21.3897 0.878232 78.465
lradius 32.9034
lwrist 7.64537
lhand -29.4582 19.8741
lfingers 7.12502
lthumb -2.79422 49.8355
rfemur -30.822 9.70269 15.7883
rtibia 15.746
rfoot -12.0556 -14.1805
rtoes 2.871
lfemur 15.308 -1.87694 -27.8981
ltibia 11.7238
lfoot -16.004 -5.76168
ltoes -0.0774963
241
root 5.14318 17.669 14.4648 0.314533 0.68847 1.955
lowerback 10.6602 -0.871635 -4.41225
upperback -0.33295 -1.63454 1.28614
thorax -6.18084 -0.641162 4.1034
lowerneck -18.111 -2.81901 -2.02086
upperneck 16.6215 -3.68498 1.80102
head 8.21229 -1.68733 0.481497
rclavicle -4.22914e-014 -6.36111e-015
rhumerus -35.0534 -22.2597 -75.507
rradius 25.8038
rwrist 5.45482
rhand -17.0369 20.4089
rfingers 7.12502
rthumb 9.19974 -9.37042
lclavicle -4.22914e-014 -6.36111e-015
lhumerus -21.4054 0.637427 78.5469
lradius 33.0576
lwrist 7.771
lhand -29.6579 17.9787
lfingers 7.12502
lthumb -2.98706 47.9375
rfemur -30.7882 9.56961 16.6631
rtibia 15.5053
rfoot -10.641 -12.9784
rtoes -1.97364
lfemur 15.399 -1.90708 -27.2132
ltibia 12.729
lfoot -16.5268 -5.76523
ltoes -2.15421
242
root 5.12343 17.6477 14.6539 0.368934 0.660474 1.82103
lowerback 10.8454 -0.827527 -4.32098
upperback -0.490742 -1.5724 1.3235
thorax -6.46099 -0.601604 4.09118
lowerneck -18.0669 -2.86113 -2.07403
upperneck 16.798 -3.75722 1.91627
head 8.26897 -1.71233 0.519372
rclavicle -1.43125e-014 -7.55382e-015
rhumerus -35.5085 -22.7932 -75.1163
rradius 25.6592
rwrist 5.88697
rhand -17.155 21.4626
rfingers 7.12502
rthumb 9.08574 -8.32174
lclavicle -1.43125e-014 -7.55382e-015
lhumerus -21.5365 0.194737 78.6957
lradius 33.2787
lwrist 7.67641
lhand -29.9169 17.2596
lfingers 7.12502
lthumb -3.23722 47.2147
rfemur -30.774 8.90051 17.2684
rtibia 15.7809
rfoot -9.96745 -11.4796
rtoes -1.59857
lfemur 15.2743 -2.07268 -26.951
ltibia 13.8005
lfoot -16.3065 -6.46589
ltoes -1.77195
243
root 5.10945 17.6276 14.8539 0.295972 0.709033 1.87122
lowerback 10.9554 -0.842127 -4.40621
upperback -0.524065 -1.6066 1.34786
thorax -6.55257 -0.611593 4.17515
lowerneck -18.1425 -2.86339 -2.04874
upperneck 16.9028 -3.75927 1.87297
head 8.31617 -1.71502 0.499024
rclavicle 2.23881e-014 0
rhumerus -35.6131 -23.3075 -74.6975
rradius 25.282
rwrist 6.98915
rhand -16.9768 23.35
rfingers 7.12502
rthumb 9.2577 -6.42676
lclavicle 2.23881e-014 0
lhumerus -21.5623 -0.0724689 78.9076
lradius 33.4577
lwrist 7.28931
lhand -30.0476 18.7455
lfingers 7.12502
lthumb -3.36347 48.6987
rfemur -30.8261 7.86034 17.81
rtibia 16.919
rfoot -9.5897 -9.94499
rtoes -0.106128
lfemur 15.6377 -2.36869 -26.9642
ltibia 14.3433
lfoot -15.6546 -7.24729
ltoes -0.3953
244
root 5.09295 17.6058 15.0699 0.133701 0.658948 1.79329
lowerback 10.8105 -0.880779 -4.40619
upperback -0.382115 -1.64685 1.38788
thorax -6.31407 -0.640709 4.21587
lowerneck -18.057 -2.79588 -2.03497
upperneck 16.789 -3.6776 1.91261
head 8.26169 -1.67272 0.521873
rclavicle -4.96962e-015 2.38542e-015
rhumerus -35.2521 -23.5501 -74.7036
rradius 24.3387
rwrist 6.36214
rhand -17.4326 25.4162
rfingers 7.12502
rthumb 8.8179 -4.37959
lclavicle -4.96962e-015 2.38542e-015
lhumerus -21.5119 -0.17561 78.962
lradius 33.6683
lwrist 7.12331
lhand -30.1299 20.0012
lfingers 7.12502
lthumb -3.4429 49.9532
rfemur -30.9609 7.00916 18.494
rtibia 18.6856
rfoot -8.99324 -8.67554
rtoes -0.141086
lfemur 16.5445 -2.61882 -26.8637
ltibia 14.4379
lfoot -15.2141 -7.56063
ltoes -1.79611
245
root 5.08219 17.5847 15.2959 -0.116847 0.71318 2.0584
lowerback 10.6115 -0.924053 -4.62531
upperback -0.180204 -1.72791 1.25783
thorax -5.97678 -0.690086 4.20322
lowerneck -17.8552 -2.78541 -2.01736
upperneck 16.5461 -3.69598 2.05863
head 8.14786 -1.66815 0.56909
rclavicle -8.69683e-015 -1.59028e-015
rhumerus -35.0716 -23.9891 -74.6773
rradius 23.7277
rwrist 6.07642
rhand -17.57 24.0314
rfingers 7.12502
rthumb 8.68535 -5.76995
lclavicle -8.69683e-015 -1.59028e-015
lhumerus -21.4269 -0.303859 78.9739
lradius 33.6859
lwrist 7.17596
lhand -30.1318 19.1667
lfingers 7.12502
lthumb -3.44476 49.1186
rfemur -30.9502 6.34968 18.6336
rtibia 20.5157
rfoot -8.28841 -7.81897
rtoes -0.0225545
lfemur 17.5053 -2.89193 -27.1646
ltibia 14.7085
lfoot -14.8343 -7.82535
ltoes -4.31774
246
root 5.06638 17.5818 15.5098 -0.260913 0.764249 2.11856
lowerback 10.7178 -0.960331 -4.65665
upperback -0.175369 -1.78765 1.21437
thorax -6.02583 -0.717664 4.18742
lowerneck -17.8673 -2.79523 -2.05113
upperneck 16.5999 -3.72171 2.15692
head 8.17136 -1.67192 0.603844
rclavicle 1.82136e-014 -1.07344e-014
rhumerus -35.0939 -24.5646 -74.4324
rradius 23.2687
rwrist 6.76532
rhand -17.3703 22.9934
rfingers 7.12502
rthumb 8.87805 -6.79981
lclavicle 1.82136e-014 -1.07344e-014
lhumerus -21.5491 -0.438398 79.0383
lradius 33.7743
lwrist 7.1312
lhand -29.8934 19.1524
lfingers 7.12502
lthumb -3.21452 49.1079
rfemur -31.1125 6.57563 18.6669
rtibia 22.1989
rfoot -6.99559 -8.35487
rtoes -0.942166
lfemur 17.937 -3.07343 -27.1979
ltibia 15.4196
lfoot -14.4129 -8.18947
ltoes -7.30773
247
root 5.03857 17.5979 15.7094 -0.0738634 0.738975 1.77137
lowerback 10.8795 -0.991264 -4.48668
upperback -0.422415 -1.80838 1.38314
thorax -6.37703 -0.714673 4.2849
lowerneck -17.9626 -2.77153 -2.16699
upperneck 16.9123 -3.67064 2.18761
head 8.29488 -1.64949 0.636921
rclavicle -4.26393e-014 -2.78299e-015
rhumerus -35.2848 -24.7162 -74.2066
rradius 23.0716
rwrist 7.39169
rhand -17.2426 22.9081
rfingers 7.12502
rthumb 9.0013 -6.87987
lclavicle -4.26393e-014 -2.78299e-015
lhumerus -21.79 -0.397915 79.1665
lradius 33.8622
lwrist 6.96874
lhand -29.7141 20.7295
lfingers 7.12502
lthumb -3.04132 50.6876
rfemur -31.8813 7.29613 18.9822
rtibia 23.8914
rfoot -5.1976 -9.62688
rtoes -5.42311
lfemur 17.6245 -3.4526 -26.7781
ltibia 16.4627
lfoot -13.3519 -8.94038
ltoes -8.38705
248
root 5.018 17.6095 15.9259 -0.00931412 0.588597 1.21074
lowerback 10.6959 -0.994117 -4.00212
upperback -0.450022 -1.7304 1.57818
thorax -6.31783 -0.690558 4.19908
lowerneck -17.9557 -2.77859 -2.20152
upperneck 16.9857 -3.65353 2.09381
head 8.31674 -1.6532 0.613031
rclavicle 2.90723e-015 3.18055e-015
rhumerus -35.2825 -24.6329 -74.1829
rradius 23.0876
rwrist 7.72229
rhand -17.0823 21.9381
rfingers 7.12502
rthumb 9.15589 -7.84313
lclavicle 2.90723e-015 3.18055e-015
lhumerus -21.9587 -0.372512 79.2779
lradius 33.9403
lwrist 6.90456
lhand -29.8486 20.2757
lfingers 7.12502
lthumb -3.17125 50.2319
rfemur -32.3435 7.49929 19.7409
rtibia 25.4873
rfoot -4.10852 -9.99984
rtoes -3.48986
lfemur 17.3267 -3.90993 -26.2492
ltibia 18.0669
lfoot -12.2464 -9.57061
ltoes -9.95738
249
root 5.0105 17.6073 16.1623 -0.184604 0.565974 0.979823
lowerback 10.4834 -1.03661 -3.68357
upperback -0.352087 -1.73317 1.66084
thorax -6.09948 -0.708904 4.09641
lowerneck -17.9042 -2.78816 -2.33588
upperneck 16.9993 -3.63241 2.09668
head 8.31445 -1.65216 0.639073
rclavicle 1.87852e-014 -1.35174e-014
rhumerus -35.2728 -25.0144 -73.879
rradius 22.8412
rwrist 8.3797
rhand -17.4251 20.8557
rfingers 7.12502
rthumb 8.82513 -8.93979
lclavicle 1.87852e-014 -1.35174e-014
lhumerus -22.326 -0.244549 79.4602
lradius 34.0993
lwrist 6.91766
lhand -29.9586 18.2708
lfingers 7.12502
lthumb -3.27744 48.2254
rfemur -32.1671 7.15912 20.2424
rtibia 26.8304
rfoot -4.14351 -9.22741
rtoes 0.167752
lfemur 17.2958 -4.41468 -26.1748
ltibia 20.1728
lfoot -11.3207 -9.90503
ltoes -11.9074
250
root 5.01452 17.6003 16.3917 -0.35665 0.727325 1.03561
lowerback 10.4926 -1.15732 -3.46594
upperback -0.372642 -1.87101 1.60163
thorax -6.12151 -0.783527 3.93179
lowerneck -17.8866 -2.72547 -2.20618
upperneck 17.1338 -3.55103 1.93316
head 8.34905 -1.62197 0.572904
rclavicle -6.68413e-015 1.39149e-014
rhumerus -35.3982 -25.7027 -73.3617
rradius 22.1655
rwrist 9.20094
rhand -17.7657 20.5882
rfingers 7.12502
rthumb 8.49647 -9.22083
lclavicle -6.68413e-015 1.39149e-014
lhumerus -22.77 0.200744 79.5701
lradius 34.2273
lwrist 6.59111
lhand -29.5942 19.5286
lfingers 7.12502
lthumb -2.92555 49.4883
rfemur -31.8698 6.39733 20.4201
rtibia 28.0345
rfoot -4.02968 -7.63518
rtoes 1.20495
lfemur 17.2021 -4.9142 -26.4025
ltibia 22.3364
lfoot -9.98267 -10.3557
ltoes -10.9645
251
root 5.00667 17.6101 16.6039 -0.407683 0.555795 0.609322
lowerback 10.6497 -1.18634 -3.01174
upperback -0.477272 -1.84838 1.74894
thorax -6.33212 -0.777551 3.83544
lowerneck -18.2237 -2.62222 -2.01221
upperneck 17.6673 -3.41113 1.66872
head 8.57758 -1.56623 0.463725
rclavicle -1.81391e-015 -1.43125e-014
rhumerus -35.4371 -26.7077 -72.6632
rradius 21.2402
rwrist 10.4172
rhand -17.833 20.8979
rfingers 7.12502
rthumb 8.43145 -8.91375
lclavicle -1.81391e-015 -1.43125e-014
lhumerus -23.1871 0.741041 79.7168
lradius 34.2328
lwrist 6.16234
lhand -29.5225 22.4943
lfingers 7.12502
lthumb -2.85632 52.4549
rfemur -31.7539 6.18394 21.1033
rtibia 29.1604
rfoot -3.5681 -6.47054
rtoes 4.38979
lfemur 16.5702 -5.08427 -25.9949
ltibia 24.4773
lfoot -8.16441 -11.2048
ltoes -10.3805
252
root 4.98851 17.64 16.8227 -0.547574 0.111409 -0.00512161
lowerback 10.7337 -1.11273 -2.52529
upperback -0.490881 -1.67676 1.95654
thorax -6.41609 -0.703747 3.75634
lowerneck -18.2695 -2.56925 -1.97602
upperneck 17.8978 -3.33185 1.57375
head 8.66017 -1.53551 0.434303
rclavicle 4.32605e-014 -4.77083e-015
rhumerus -35.485 -27.9019 -71.981
rradius 20.5363
rwrist 11.8037
rhand -17.8287 21.0647
rfingers 7.12502
rthumb 8.43562 -8.74684
lclavicle 4.32605e-014 -4.77083e-015
lhumerus -23.4535 0.90239 79.8876
lradius 33.866
lwrist 6.36499
lhand -30.0933 22.1538
lfingers 7.12502
lthumb -3.4076 52.1063
rfemur -31.447 6.18175 22.1241
rtibia 30.1629
rfoot -3.49788 -5.77202
rtoes 5.19535
lfemur 15.7045 -4.93181 -25.2626
ltibia 26.6327
lfoot -5.82095 -12.6464
ltoes -12.3766
253
root 4.97291 17.6636 17.0537 -0.886514 -0.164852 -0.103851
lowerback 10.8328 -1.0201 -2.53138
upperback -0.451371 -1.55108 2.03123
thorax -6.43843 -0.640581 3.82168
lowerneck -17.7975 -2.60045 -2.05776
upperneck 17.5812 -3.33939 1.49703
head 8.46912 -1.55751 0.427655
rclavicle -1.93567e-014 4.37326e-015
rhumerus -35.7238 -28.6779 -71.3531
rradius 20.1071
rwrist 12.5667
rhand -17.7934 21.369
rfingers 7.12502
rthumb 8.46967 -8.44114
lclavicle -1.93567e-014 4.37326e-015
lhumerus -23.6767 0.919872 80.1701
lradius 33.2735
lwrist 6.56157
lhand -30.6843 21.6994
lfingers 7.12502
lthumb -3.97824 51.642
rfemur -30.672 5.84623 22.6391
rtibia 30.8346
rfoot -3.53489 -4.99236
rtoes 3.07655
lfemur 14.9698 -4.73729 -25.0501
ltibia 29.0701
lfoot -3.35384 -14.1583
ltoes -11.9717
254
root 4.96067 17.662 17.2731 -1.15475 -0.263162 -0.324802
lowerback 11.0369 -1.04252 -2.29663
upperback -0.47868 -1.54929 2.09651
thorax -6.58733 -0.642718 3.7651
lowerneck -17.4819 -2.62138 -2.09555
upperneck 17.363 -3.35578 1.47318
head 8.34012 -1.57331 0.42849
rclavicle -1.81639e-014 2.50469e-014
rhumerus -36.0024 -28.6732 -71.1699
rradius 20.1245
rwrist 12.6929
rhand -17.6467 21.5868
rfingers 7.12502
rthumb 8.61126 -8.21755
lclavicle -1.81639e-014 2.50469e-014
lhumerus -24.1243 1.47079 80.2328
lradius 32.979
lwrist 6.46139
lhand -30.4488 22.5546
lfingers 7.12502
lthumb -3.75085 52.5013
rfemur -30.0305 5.5314 23.2104
rtibia 31.5358
rfoot -3.44603 -4.30755
rtoes 0.513074
lfemur 14.3434 -4.47292 -24.5632
ltibia 31.4799
lfoot -1.05641 -15.3543
ltoes -9.07183
